<svg xmlns="http://www.w3.org/2000/svg" xmlns:xlink="http://www.w3.org/1999/xlink" zoomAndPan="magnify" preserveAspectRatio="xMidYMid meet" version="1.0" viewBox="114 170.65 142.67 33.35"><defs><g></g><clipPath id="2b67c5b010"><path d="M 114 170.648438 L 138.417969 170.648438 L 138.417969 204 L 114 204 Z M 114 170.648438 " clip-rule="nonzero"></path></clipPath></defs><g clip-path="url(#2b67c5b010)"><path fill="#f89c29" d="M 138.226562 190.925781 C 138.214844 190.65625 138.148438 190.402344 138.035156 190.164062 C 137.917969 189.921875 137.761719 189.710938 137.566406 189.535156 C 137.367188 189.355469 137.140625 189.222656 136.890625 189.132812 C 136.636719 189.042969 136.378906 189.007812 136.113281 189.023438 C 135.847656 189.039062 135.59375 189.105469 135.351562 189.21875 C 135.113281 189.335938 134.902344 189.496094 134.726562 189.695312 C 134.550781 189.894531 134.417969 190.121094 134.332031 190.375 C 134.246094 190.625 134.210938 190.886719 134.226562 191.152344 C 134.234375 191.296875 134.238281 191.445312 134.238281 191.59375 C 134.238281 191.902344 134.222656 192.207031 134.1875 192.511719 C 134.148438 192.820312 134.097656 193.121094 134.023438 193.417969 C 133.953125 193.71875 133.863281 194.011719 133.757812 194.300781 C 133.652344 194.589844 133.527344 194.871094 133.386719 195.144531 C 133.25 195.417969 133.09375 195.683594 132.921875 195.9375 C 132.75 196.195312 132.566406 196.4375 132.367188 196.671875 C 132.167969 196.90625 131.953125 197.128906 131.726562 197.335938 C 131.5 197.542969 131.265625 197.738281 131.015625 197.917969 C 130.765625 198.101562 130.507812 198.265625 130.238281 198.414062 C 129.972656 198.566406 129.695312 198.699219 129.410156 198.816406 C 129.125 198.933594 128.835938 199.03125 128.539062 199.117188 C 128.242188 199.199219 127.945312 199.265625 127.640625 199.3125 C 127.335938 199.359375 127.03125 199.386719 126.722656 199.398438 C 126.417969 199.410156 126.109375 199.40625 125.804688 199.378906 C 125.496094 199.355469 125.191406 199.3125 124.890625 199.25 C 124.589844 199.191406 124.292969 199.113281 124 199.015625 C 123.710938 198.921875 123.421875 198.808594 123.144531 198.679688 C 122.867188 198.550781 122.597656 198.402344 122.335938 198.242188 C 122.074219 198.082031 121.820312 197.902344 121.582031 197.714844 C 121.339844 197.523438 121.109375 197.316406 120.894531 197.097656 C 120.679688 196.878906 120.476562 196.652344 120.285156 196.410156 C 120.097656 196.167969 119.921875 195.914062 119.761719 195.652344 C 119.601562 195.386719 119.460938 195.117188 119.332031 194.835938 C 119.203125 194.558594 119.09375 194.269531 119 193.976562 C 118.90625 193.683594 118.832031 193.386719 118.773438 193.085938 C 118.714844 192.785156 118.671875 192.480469 118.648438 192.171875 C 118.628906 191.867188 118.621094 191.558594 118.636719 191.253906 C 118.648438 190.945312 118.683594 190.640625 118.730469 190.335938 C 118.78125 190.035156 118.847656 189.734375 118.933594 189.4375 C 119.019531 189.144531 119.121094 188.855469 119.242188 188.570312 C 119.359375 188.289062 119.496094 188.011719 119.648438 187.746094 C 119.800781 187.476562 119.964844 187.21875 120.148438 186.972656 C 120.332031 186.726562 120.527344 186.488281 120.738281 186.265625 C 120.949219 186.039062 121.171875 185.828125 121.40625 185.628906 C 121.640625 185.433594 121.886719 185.25 122.144531 185.078125 C 122.398438 184.910156 122.667969 184.757812 122.941406 184.621094 C 123.214844 184.484375 123.5 184.363281 123.789062 184.257812 C 124.078125 184.152344 124.371094 184.066406 124.671875 183.996094 C 124.96875 183.925781 125.273438 183.875 125.578125 183.84375 C 125.882812 183.808594 126.191406 183.792969 126.496094 183.796875 C 126.804688 183.796875 127.113281 183.816406 127.417969 183.855469 C 127.722656 183.894531 128.023438 183.953125 128.320312 184.027344 C 128.621094 184.101562 128.914062 184.191406 129.199219 184.300781 C 129.488281 184.410156 129.769531 184.535156 130.039062 184.679688 C 130.3125 184.820312 130.578125 184.976562 130.832031 185.152344 C 131.085938 185.324219 131.328125 185.511719 131.558594 185.714844 C 131.792969 185.914062 132.011719 186.128906 132.21875 186.359375 C 132.421875 186.585938 132.617188 186.824219 132.792969 187.074219 C 132.949219 187.292969 133.136719 187.46875 133.363281 187.609375 C 133.585938 187.753906 133.832031 187.84375 134.09375 187.886719 C 134.355469 187.933594 134.613281 187.925781 134.875 187.867188 C 135.132812 187.804688 135.371094 187.699219 135.585938 187.546875 C 135.800781 187.390625 135.980469 187.203125 136.121094 186.976562 C 136.261719 186.753906 136.355469 186.507812 136.398438 186.246094 C 136.445312 185.984375 136.4375 185.726562 136.378906 185.464844 C 136.316406 185.207031 136.210938 184.96875 136.058594 184.753906 C 135.210938 183.566406 134.179688 182.566406 132.964844 181.761719 C 131.746094 180.953125 130.425781 180.390625 129.003906 180.070312 L 132.257812 173.46875 C 132.363281 173.253906 132.421875 173.03125 132.4375 172.796875 C 132.453125 172.558594 132.421875 172.332031 132.347656 172.105469 C 132.273438 171.882812 132.15625 171.683594 132 171.503906 C 131.84375 171.328125 131.660156 171.1875 131.449219 171.082031 C 131.238281 170.976562 131.011719 170.917969 130.777344 170.902344 C 130.542969 170.886719 130.3125 170.917969 130.089844 170.992188 C 129.863281 171.066406 129.664062 171.183594 129.488281 171.339844 C 129.308594 171.496094 129.167969 171.679688 129.0625 171.890625 L 124.394531 179.964844 L 124.324219 179.980469 L 125.921875 173.734375 C 125.996094 173.507812 126.027344 173.269531 126.007812 173.03125 C 125.984375 172.789062 125.921875 172.5625 125.808594 172.347656 C 125.695312 172.132812 125.546875 171.949219 125.359375 171.796875 C 125.171875 171.644531 124.960938 171.535156 124.730469 171.464844 C 124.496094 171.398438 124.261719 171.378906 124.023438 171.40625 C 123.78125 171.4375 123.558594 171.511719 123.347656 171.628906 C 123.136719 171.75 122.960938 171.90625 122.8125 172.097656 C 122.667969 172.292969 122.5625 172.503906 122.503906 172.738281 L 119.535156 181.820312 L 119.535156 175.628906 C 119.546875 175.390625 119.511719 175.160156 119.433594 174.933594 C 119.351562 174.707031 119.230469 174.507812 119.066406 174.328125 C 118.90625 174.152344 118.714844 174.015625 118.496094 173.914062 C 118.277344 173.816406 118.050781 173.761719 117.8125 173.753906 C 117.570312 173.746094 117.339844 173.785156 117.117188 173.871094 C 116.890625 173.960938 116.695312 174.085938 116.519531 174.25 C 116.347656 174.417969 116.214844 174.609375 116.121094 174.832031 C 116.027344 175.050781 115.976562 175.28125 115.976562 175.519531 L 115.628906 186.832031 C 115.449219 187.230469 115.296875 187.640625 115.164062 188.058594 C 115.035156 188.476562 114.925781 188.902344 114.84375 189.332031 C 114.757812 189.761719 114.699219 190.195312 114.664062 190.628906 C 114.628906 191.066406 114.617188 191.503906 114.628906 191.941406 C 114.640625 192.378906 114.679688 192.816406 114.738281 193.25 C 114.800781 193.683594 114.886719 194.113281 114.996094 194.535156 C 115.105469 194.960938 115.238281 195.378906 115.390625 195.789062 C 115.546875 196.195312 115.726562 196.597656 115.925781 196.988281 C 116.125 197.375 116.347656 197.753906 116.589844 198.117188 C 116.832031 198.484375 117.089844 198.835938 117.371094 199.171875 C 117.652344 199.507812 117.953125 199.828125 118.269531 200.128906 C 118.585938 200.433594 118.917969 200.714844 119.265625 200.980469 C 119.613281 201.25 119.976562 201.492188 120.351562 201.71875 C 120.726562 201.945312 121.113281 202.148438 121.511719 202.332031 C 121.910156 202.515625 122.316406 202.675781 122.734375 202.8125 C 123.148438 202.949219 123.570312 203.0625 124 203.152344 C 124.429688 203.242188 124.859375 203.308594 125.296875 203.351562 C 125.734375 203.394531 126.171875 203.410156 126.609375 203.40625 C 127.046875 203.398438 127.484375 203.367188 127.917969 203.3125 C 128.351562 203.257812 128.78125 203.179688 129.207031 203.074219 C 129.632812 202.972656 130.050781 202.847656 130.464844 202.699219 C 130.875 202.546875 131.277344 202.375 131.671875 202.183594 C 132.0625 201.988281 132.445312 201.773438 132.8125 201.535156 C 133.179688 201.300781 133.535156 201.042969 133.875 200.765625 C 134.214844 200.492188 134.539062 200.195312 134.847656 199.882812 C 135.15625 199.574219 135.445312 199.246094 135.714844 198.898438 C 135.984375 198.554688 136.238281 198.199219 136.46875 197.824219 C 136.699219 197.453125 136.910156 197.070312 137.097656 196.675781 C 137.285156 196.277344 137.449219 195.875 137.59375 195.460938 C 137.738281 195.046875 137.859375 194.625 137.953125 194.199219 C 138.050781 193.769531 138.125 193.339844 138.171875 192.90625 C 138.21875 192.46875 138.246094 192.03125 138.246094 191.59375 C 138.246094 191.371094 138.238281 191.144531 138.226562 190.925781 Z M 138.226562 190.925781 " fill-opacity="1" fill-rule="nonzero"></path></g><path fill="#f89c29" d="M 126.433594 184.433594 C 125.910156 184.433594 125.394531 184.492188 124.886719 184.605469 L 125.820312 186.128906 L 123.980469 195.71875 L 126.433594 197.945312 L 128.886719 195.71875 L 127.050781 186.128906 L 127.980469 184.605469 C 127.472656 184.492188 126.953125 184.433594 126.433594 184.433594 Z M 126.433594 184.433594 " fill-opacity="1" fill-rule="nonzero"></path><g fill="#000000" fill-opacity="1"><g transform="translate(139.890137, 196.15644)"><g><path d="M 5.5625 -16.546875 C 7.132812 -16.546875 8.304688 -16.128906 9.078125 -15.296875 C 9.847656 -14.460938 10.234375 -13.390625 10.234375 -12.078125 L 10.234375 -9.6875 L 6.0625 -9.6875 L 6.0625 -12.875 C 6.0625 -13.1875 6.007812 -13.421875 5.90625 -13.578125 C 5.800781 -13.742188 5.601562 -13.828125 5.3125 -13.828125 C 5.070312 -13.828125 4.90625 -13.71875 4.8125 -13.5 C 4.71875 -13.289062 4.671875 -13.066406 4.671875 -12.828125 L 4.671875 -3.375 C 4.671875 -3.132812 4.71875 -2.910156 4.8125 -2.703125 C 4.90625 -2.492188 5.070312 -2.390625 5.3125 -2.390625 C 5.601562 -2.390625 5.800781 -2.476562 5.90625 -2.65625 C 6.007812 -2.832031 6.0625 -3.113281 6.0625 -3.5 L 6.0625 -7 L 10.234375 -7 L 10.234375 -4.21875 C 10.234375 -3.382812 10.054688 -2.617188 9.703125 -1.921875 C 9.359375 -1.234375 8.828125 -0.679688 8.109375 -0.265625 C 7.390625 0.140625 6.507812 0.34375 5.46875 0.34375 C 3.851562 0.34375 2.617188 -0.0390625 1.765625 -0.8125 C 0.921875 -1.582031 0.5 -2.832031 0.5 -4.5625 L 0.5 -11.640625 C 0.5 -13.242188 0.929688 -14.460938 1.796875 -15.296875 C 2.660156 -16.128906 3.914062 -16.546875 5.5625 -16.546875 Z M 5.5625 -16.546875 "></path></g></g></g><g fill="#000000" fill-opacity="1"><g transform="translate(150.399728, 196.15644)"><g><path d="M 4.953125 -13.640625 C 6.398438 -13.640625 7.53125 -13.363281 8.34375 -12.8125 C 9.164062 -12.257812 9.578125 -11.257812 9.578125 -9.8125 L 9.578125 0 L 5.671875 0 L 5.671875 -0.75 C 5.296875 -0.375 4.882812 -0.0976562 4.4375 0.078125 C 3.988281 0.253906 3.554688 0.34375 3.140625 0.34375 C 2.253906 0.34375 1.59375 0.078125 1.15625 -0.453125 C 0.71875 -0.992188 0.5 -1.648438 0.5 -2.421875 L 0.5 -4.46875 C 0.5 -4.988281 0.550781 -5.390625 0.65625 -5.671875 C 0.757812 -5.960938 0.984375 -6.226562 1.328125 -6.46875 C 1.679688 -6.707031 2.238281 -6.96875 3 -7.25 C 3.75 -7.53125 4.300781 -7.757812 4.65625 -7.9375 C 5.019531 -8.125 5.257812 -8.296875 5.375 -8.453125 C 5.488281 -8.617188 5.546875 -8.820312 5.546875 -9.0625 L 5.546875 -10.859375 C 5.546875 -11.023438 5.488281 -11.1875 5.375 -11.34375 C 5.257812 -11.507812 5.085938 -11.59375 4.859375 -11.59375 C 4.660156 -11.59375 4.507812 -11.523438 4.40625 -11.390625 C 4.300781 -11.253906 4.25 -11.078125 4.25 -10.859375 L 4.25 -8.171875 L 0.5 -8.171875 L 0.5 -9.6875 C 0.5 -11.144531 0.878906 -12.164062 1.640625 -12.75 C 2.410156 -13.34375 3.515625 -13.640625 4.953125 -13.640625 Z M 4.25 -4.359375 L 4.25 -2.890625 C 4.25 -2.722656 4.296875 -2.5625 4.390625 -2.40625 C 4.492188 -2.25 4.640625 -2.171875 4.828125 -2.171875 C 5.054688 -2.171875 5.234375 -2.25 5.359375 -2.40625 C 5.484375 -2.5625 5.546875 -2.707031 5.546875 -2.84375 L 5.546875 -6.328125 C 5.179688 -6.109375 4.875 -5.84375 4.625 -5.53125 C 4.375 -5.21875 4.25 -4.828125 4.25 -4.359375 Z M 4.25 -4.359375 "></path></g></g></g><g fill="#000000" fill-opacity="1"><g transform="translate(160.478043, 196.15644)"><g><path d="M 7.0625 -13.640625 L 7.0625 -8.8125 C 6.757812 -8.84375 6.53125 -8.859375 6.375 -8.859375 C 5.800781 -8.859375 5.367188 -8.6875 5.078125 -8.34375 C 4.796875 -8 4.65625 -7.601562 4.65625 -7.15625 L 4.65625 0 L 0.609375 0 L 0.609375 -13.296875 L 4.515625 -13.296875 L 4.515625 -11.59375 L 4.5625 -11.59375 C 4.6875 -12.09375 5 -12.546875 5.5 -12.953125 C 6 -13.367188 6.519531 -13.597656 7.0625 -13.640625 Z M 7.0625 -13.640625 "></path></g></g></g><g fill="#000000" fill-opacity="1"><g transform="translate(167.6282, 196.15644)"><g><path d="M 5.265625 -13.640625 C 6.097656 -13.640625 6.851562 -13.46875 7.53125 -13.125 C 8.21875 -12.789062 8.757812 -12.296875 9.15625 -11.640625 C 9.5625 -10.992188 9.765625 -10.222656 9.765625 -9.328125 L 9.765625 -6.453125 L 4.546875 -6.453125 L 4.546875 -2.90625 C 4.546875 -2.375 4.75 -2.109375 5.15625 -2.109375 C 5.625 -2.109375 5.859375 -2.40625 5.859375 -3 L 5.859375 -5.421875 L 9.765625 -5.421875 L 9.765625 -3.96875 C 9.765625 -2.664062 9.378906 -1.617188 8.609375 -0.828125 C 7.847656 -0.046875 6.734375 0.34375 5.265625 0.34375 C 3.722656 0.34375 2.539062 -0.046875 1.71875 -0.828125 C 0.90625 -1.609375 0.5 -2.65625 0.5 -3.96875 L 0.5 -9.328125 C 0.5 -10.660156 0.914062 -11.710938 1.75 -12.484375 C 2.582031 -13.253906 3.753906 -13.640625 5.265625 -13.640625 Z M 4.546875 -10.390625 L 4.546875 -8.625 L 5.859375 -8.625 L 5.859375 -10.3125 C 5.859375 -10.894531 5.625 -11.1875 5.15625 -11.1875 C 4.75 -11.1875 4.546875 -10.921875 4.546875 -10.390625 Z M 4.546875 -10.390625 "></path></g></g></g><g fill="#000000" fill-opacity="1"><g transform="translate(177.706514, 196.15644)"><g><path d="M 5.265625 -13.640625 C 6.097656 -13.640625 6.851562 -13.46875 7.53125 -13.125 C 8.21875 -12.789062 8.757812 -12.296875 9.15625 -11.640625 C 9.5625 -10.992188 9.765625 -10.222656 9.765625 -9.328125 L 9.765625 -6.453125 L 4.546875 -6.453125 L 4.546875 -2.90625 C 4.546875 -2.375 4.75 -2.109375 5.15625 -2.109375 C 5.625 -2.109375 5.859375 -2.40625 5.859375 -3 L 5.859375 -5.421875 L 9.765625 -5.421875 L 9.765625 -3.96875 C 9.765625 -2.664062 9.378906 -1.617188 8.609375 -0.828125 C 7.847656 -0.046875 6.734375 0.34375 5.265625 0.34375 C 3.722656 0.34375 2.539062 -0.046875 1.71875 -0.828125 C 0.90625 -1.609375 0.5 -2.65625 0.5 -3.96875 L 0.5 -9.328125 C 0.5 -10.660156 0.914062 -11.710938 1.75 -12.484375 C 2.582031 -13.253906 3.753906 -13.640625 5.265625 -13.640625 Z M 4.546875 -10.390625 L 4.546875 -8.625 L 5.859375 -8.625 L 5.859375 -10.3125 C 5.859375 -10.894531 5.625 -11.1875 5.15625 -11.1875 C 4.75 -11.1875 4.546875 -10.921875 4.546875 -10.390625 Z M 4.546875 -10.390625 "></path></g></g></g><g fill="#000000" fill-opacity="1"><g transform="translate(187.784829, 196.15644)"><g><path d="M 7.0625 -13.640625 L 7.0625 -8.8125 C 6.757812 -8.84375 6.53125 -8.859375 6.375 -8.859375 C 5.800781 -8.859375 5.367188 -8.6875 5.078125 -8.34375 C 4.796875 -8 4.65625 -7.601562 4.65625 -7.15625 L 4.65625 0 L 0.609375 0 L 0.609375 -13.296875 L 4.515625 -13.296875 L 4.515625 -11.59375 L 4.5625 -11.59375 C 4.6875 -12.09375 5 -12.546875 5.5 -12.953125 C 6 -13.367188 6.519531 -13.597656 7.0625 -13.640625 Z M 7.0625 -13.640625 "></path></g></g></g><g fill="#000000" fill-opacity="1"><g transform="translate(194.934986, 196.15644)"><g><path d="M 4.921875 -13.640625 C 6.148438 -13.640625 7.164062 -13.351562 7.96875 -12.78125 C 8.78125 -12.21875 9.1875 -11.398438 9.1875 -10.328125 L 9.1875 -9.015625 L 5.453125 -9.015625 L 5.453125 -10.3125 C 5.453125 -10.8125 5.242188 -11.0625 4.828125 -11.0625 C 4.390625 -11.0625 4.171875 -10.8125 4.171875 -10.3125 L 4.171875 -9.71875 C 4.171875 -9.445312 4.335938 -9.1875 4.671875 -8.9375 C 5.003906 -8.695312 5.488281 -8.410156 6.125 -8.078125 L 6.578125 -7.859375 C 7.347656 -7.453125 7.921875 -7.078125 8.296875 -6.734375 C 8.679688 -6.390625 8.953125 -5.972656 9.109375 -5.484375 C 9.273438 -5.003906 9.359375 -4.359375 9.359375 -3.546875 C 9.359375 -2.210938 8.96875 -1.226562 8.1875 -0.59375 C 7.414062 0.03125 6.207031 0.34375 4.5625 0.34375 C 3.1875 0.34375 2.132812 0.0703125 1.40625 -0.46875 C 0.675781 -1.019531 0.3125 -1.945312 0.3125 -3.25 L 0.3125 -4.796875 L 4.0625 -4.796875 L 4.0625 -2.953125 C 4.0625 -2.742188 4.117188 -2.570312 4.234375 -2.4375 C 4.359375 -2.3125 4.519531 -2.25 4.71875 -2.25 C 4.945312 -2.25 5.125 -2.316406 5.25 -2.453125 C 5.382812 -2.597656 5.453125 -2.769531 5.453125 -2.96875 L 5.453125 -3.75 C 5.453125 -4.09375 5.304688 -4.378906 5.015625 -4.609375 C 4.734375 -4.847656 4.332031 -5.097656 3.8125 -5.359375 L 3.21875 -5.65625 C 2.300781 -6.125 1.609375 -6.644531 1.140625 -7.21875 C 0.671875 -7.789062 0.4375 -8.554688 0.4375 -9.515625 C 0.4375 -10.929688 0.800781 -11.972656 1.53125 -12.640625 C 2.269531 -13.304688 3.398438 -13.640625 4.921875 -13.640625 Z M 4.921875 -13.640625 "></path></g></g></g><g fill="#000000" fill-opacity="1"><g transform="translate(204.604721, 196.15644)"><g><path d="M 4.921875 -13.640625 C 6.148438 -13.640625 7.164062 -13.351562 7.96875 -12.78125 C 8.78125 -12.21875 9.1875 -11.398438 9.1875 -10.328125 L 9.1875 -9.015625 L 5.453125 -9.015625 L 5.453125 -10.3125 C 5.453125 -10.8125 5.242188 -11.0625 4.828125 -11.0625 C 4.390625 -11.0625 4.171875 -10.8125 4.171875 -10.3125 L 4.171875 -9.71875 C 4.171875 -9.445312 4.335938 -9.1875 4.671875 -8.9375 C 5.003906 -8.695312 5.488281 -8.410156 6.125 -8.078125 L 6.578125 -7.859375 C 7.347656 -7.453125 7.921875 -7.078125 8.296875 -6.734375 C 8.679688 -6.390625 8.953125 -5.972656 9.109375 -5.484375 C 9.273438 -5.003906 9.359375 -4.359375 9.359375 -3.546875 C 9.359375 -2.210938 8.96875 -1.226562 8.1875 -0.59375 C 7.414062 0.03125 6.207031 0.34375 4.5625 0.34375 C 3.1875 0.34375 2.132812 0.0703125 1.40625 -0.46875 C 0.675781 -1.019531 0.3125 -1.945312 0.3125 -3.25 L 0.3125 -4.796875 L 4.0625 -4.796875 L 4.0625 -2.953125 C 4.0625 -2.742188 4.117188 -2.570312 4.234375 -2.4375 C 4.359375 -2.3125 4.519531 -2.25 4.71875 -2.25 C 4.945312 -2.25 5.125 -2.316406 5.25 -2.453125 C 5.382812 -2.597656 5.453125 -2.769531 5.453125 -2.96875 L 5.453125 -3.75 C 5.453125 -4.09375 5.304688 -4.378906 5.015625 -4.609375 C 4.734375 -4.847656 4.332031 -5.097656 3.8125 -5.359375 L 3.21875 -5.65625 C 2.300781 -6.125 1.609375 -6.644531 1.140625 -7.21875 C 0.671875 -7.789062 0.4375 -8.554688 0.4375 -9.515625 C 0.4375 -10.929688 0.800781 -11.972656 1.53125 -12.640625 C 2.269531 -13.304688 3.398438 -13.640625 4.921875 -13.640625 Z M 4.921875 -13.640625 "></path></g></g></g><g fill="#000000" fill-opacity="1"><g transform="translate(214.274457, 196.15644)"><g><path d="M 5.125 -15.34375 L 5.125 -13.296875 L 6.203125 -13.296875 L 6.203125 -11.125 L 5.125 -11.125 L 5.125 -2.671875 C 5.125 -2.335938 5.273438 -2.171875 5.578125 -2.171875 L 6.203125 -2.171875 L 6.203125 0 L 3.859375 0 C 3.046875 0 2.425781 -0.113281 2 -0.34375 C 1.570312 -0.570312 1.289062 -0.894531 1.15625 -1.3125 C 1.019531 -1.726562 0.953125 -2.28125 0.953125 -2.96875 L 0.953125 -11.125 L 0.109375 -11.125 L 0.109375 -13.296875 L 0.953125 -13.296875 L 0.953125 -15.34375 Z M 5.125 -15.34375 "></path></g></g></g><g fill="#000000" fill-opacity="1"><g transform="translate(220.584747, 196.15644)"><g><path d="M 4.65625 -3.296875 C 4.65625 -3.097656 4.695312 -2.894531 4.78125 -2.6875 C 4.875 -2.488281 5.046875 -2.390625 5.296875 -2.390625 C 5.671875 -2.390625 5.859375 -2.679688 5.859375 -3.265625 L 5.859375 -13.296875 L 9.90625 -13.296875 L 9.90625 0 L 5.859375 0 L 5.859375 -1.015625 L 5.8125 -1.015625 C 5.632812 -0.609375 5.296875 -0.28125 4.796875 -0.03125 C 4.304688 0.21875 3.828125 0.34375 3.359375 0.34375 C 2.390625 0.34375 1.6875 0.0195312 1.25 -0.625 C 0.820312 -1.28125 0.609375 -2.109375 0.609375 -3.109375 L 0.609375 -13.296875 L 4.65625 -13.296875 Z M 4.65625 -3.296875 "></path></g></g></g><g fill="#000000" fill-opacity="1"><g transform="translate(231.094339, 196.15644)"><g><path d="M 10.015625 -16.203125 L 10.015625 0 L 5.765625 0 L 5.96875 -0.796875 L 5.921875 -0.796875 C 5.085938 -0.0351562 4.1875 0.34375 3.21875 0.34375 C 2.363281 0.34375 1.695312 0.0859375 1.21875 -0.421875 C 0.738281 -0.941406 0.5 -1.679688 0.5 -2.640625 L 0.5 -10.53125 C 0.5 -12.601562 1.46875 -13.640625 3.40625 -13.640625 C 3.914062 -13.640625 4.394531 -13.53125 4.84375 -13.3125 C 5.289062 -13.09375 5.648438 -12.785156 5.921875 -12.390625 L 5.96875 -12.390625 L 5.96875 -16.203125 Z M 4.546875 -10.078125 L 4.546875 -3.21875 C 4.546875 -2.664062 4.765625 -2.390625 5.203125 -2.390625 C 5.472656 -2.390625 5.664062 -2.453125 5.78125 -2.578125 C 5.90625 -2.703125 5.96875 -2.910156 5.96875 -3.203125 L 5.96875 -10.109375 C 5.96875 -10.460938 5.90625 -10.707031 5.78125 -10.84375 C 5.664062 -10.988281 5.488281 -11.0625 5.25 -11.0625 C 5 -11.0625 4.816406 -10.988281 4.703125 -10.84375 C 4.597656 -10.695312 4.546875 -10.441406 4.546875 -10.078125 Z M 4.546875 -10.078125 "></path></g></g></g><g fill="#000000" fill-opacity="1"><g transform="translate(241.60393, 196.15644)"><g><path d="M 4.546875 -14.171875 L 0.5 -14.171875 L 0.5 -16.203125 L 4.546875 -16.203125 Z M 4.546875 0 L 0.5 0 L 0.5 -13.296875 L 4.546875 -13.296875 Z M 4.546875 0 "></path></g></g></g><g fill="#000000" fill-opacity="1"><g transform="translate(246.643087, 196.15644)"><g><path d="M 5.265625 -13.640625 C 6.796875 -13.640625 7.972656 -13.25 8.796875 -12.46875 C 9.617188 -11.695312 10.03125 -10.648438 10.03125 -9.328125 L 10.03125 -3.96875 C 10.03125 -2.65625 9.617188 -1.609375 8.796875 -0.828125 C 7.972656 -0.046875 6.796875 0.34375 5.265625 0.34375 C 3.734375 0.34375 2.554688 -0.046875 1.734375 -0.828125 C 0.910156 -1.609375 0.5 -2.65625 0.5 -3.96875 L 0.5 -9.328125 C 0.5 -10.648438 0.910156 -11.695312 1.734375 -12.46875 C 2.554688 -13.25 3.734375 -13.640625 5.265625 -13.640625 Z M 4.546875 -10.359375 L 4.546875 -3.21875 C 4.546875 -2.976562 4.613281 -2.78125 4.75 -2.625 C 4.882812 -2.46875 5.054688 -2.390625 5.265625 -2.390625 C 5.472656 -2.390625 5.644531 -2.46875 5.78125 -2.625 C 5.925781 -2.78125 6 -2.976562 6 -3.21875 L 6 -10.359375 C 6 -10.597656 5.925781 -10.796875 5.78125 -10.953125 C 5.644531 -11.109375 5.472656 -11.1875 5.265625 -11.1875 C 5.003906 -11.1875 4.816406 -11.09375 4.703125 -10.90625 C 4.597656 -10.71875 4.546875 -10.535156 4.546875 -10.359375 Z M 4.546875 -10.359375 "></path></g></g></g></svg>